<?xml version="1.0" encoding="UTF-8" standalone="no"?>
<!-- Created with Inkscape (http://www.inkscape.org/) -->
<svg xmlns:dc="http://purl.org/dc/elements/1.1/" xmlns:cc="http://creativecommons.org/ns#" xmlns:rdf="http://www.w3.org/1999/02/22-rdf-syntax-ns#" xmlns:svg="http://www.w3.org/2000/svg" xmlns="http://www.w3.org/2000/svg" xmlns:xlink="http://www.w3.org/1999/xlink" xmlns:sodipodi="http://sodipodi.sourceforge.net/DTD/sodipodi-0.dtd" xmlns:inkscape="http://www.inkscape.org/namespaces/inkscape" width="400" height="400" viewBox="0 0 105.83333 105.83334" version="1.1" id="svg8" inkscape:version="0.92.4 (unknown)" sodipodi:docname="LogoElShowDeShialeweb.svg" inkscape:export-filename="/home/shialeweb/Desktop/LOGOSHOW.png" inkscape:export-xdpi="96" inkscape:export-ydpi="96">
  <defs id="defs2">
    <linearGradient inkscape:collect="always" id="linearGradient1113">
      <stop style="stop-color:#ffff00;stop-opacity:1;" offset="0" id="stop1109"/>
      <stop id="stop1141" offset="0.02404215" style="stop-color:#ffff00;stop-opacity:1;"/>
      <stop id="stop1139" offset="0.05308404" style="stop-color:#ff0000;stop-opacity:1"/>
      <stop id="stop1137" offset="0.10106628" style="stop-color:#ffff00;stop-opacity:1;"/>
      <stop id="stop1129" offset="0.17500001" style="stop-color:#ffff00;stop-opacity:1;"/>
      <stop style="stop-color:#ffffff;stop-opacity:1" offset="0.26900414" id="stop1135"/>
      <stop id="stop1127" offset="0.29804602" style="stop-color:#ffff00;stop-opacity:1;"/>
      <stop style="stop-color:#ff0000;stop-opacity:1" offset="0.40000001" id="stop1133"/>
      <stop id="stop1125" offset="0.47499999" style="stop-color:#ffff00;stop-opacity:1;"/>
      <stop style="stop-color:#ffff00;stop-opacity:1;" offset="0.56692481" id="stop1131"/>
      <stop id="stop1123" offset="0.625" style="stop-color:#ff0000;stop-opacity:1"/>
      <stop id="stop1119" offset="0.6857143" style="stop-color:#ffff00;stop-opacity:1;"/>
      <stop style="stop-color:#faffd0;stop-opacity:1" offset="0.86697477" id="stop1121"/>
      <stop id="stop1117" offset="0.9464286" style="stop-color:#ffff00;stop-opacity:1;"/>
      <stop style="stop-color:#ffff00;stop-opacity:1" offset="1" id="stop1111"/>
    </linearGradient>
    <linearGradient inkscape:collect="always" id="linearGradient899">
      <stop style="stop-color:#ffffff;stop-opacity:1;" offset="0" id="stop895"/>
      <stop style="stop-color:#ffffff;stop-opacity:0;" offset="1" id="stop897"/>
    </linearGradient>
    <radialGradient inkscape:collect="always" xlink:href="#linearGradient1113" id="radialGradient1115" cx="52.916668" cy="244.08331" fx="52.916668" fy="244.08331" r="52.916668" gradientUnits="userSpaceOnUse" gradientTransform="matrix(1,1.6909721e-7,-5.6668363e-4,1,0.13831704,-1.3361018e-5)"/>
    <radialGradient inkscape:collect="always" xlink:href="#linearGradient1113" id="radialGradient1192" gradientUnits="userSpaceOnUse" gradientTransform="matrix(1,1.6909721e-7,-5.666846e-4,1,0.47561453,1.1051091)" cx="52.916668" cy="244.08331" fx="52.916668" fy="244.08331" r="52.916668"/>
    <linearGradient inkscape:collect="always" xlink:href="#linearGradient899" id="linearGradient1267" gradientUnits="userSpaceOnUse" x1="57.1689" y1="229.57848" x2="56.885418" y2="244.46129"/>
    <linearGradient inkscape:collect="always" xlink:href="#linearGradient899" id="linearGradient1269" gradientUnits="userSpaceOnUse" x1="57.1689" y1="229.57848" x2="56.885418" y2="244.46129"/>
    <filter inkscape:collect="always" style="color-interpolation-filters:sRGB" id="filter1435" x="-0.048" width="1.096" y="-0.048" height="1.096">
      <feGaussianBlur inkscape:collect="always" stdDeviation="2.1166667" id="feGaussianBlur1437"/>
    </filter>
  </defs>
  <sodipodi:namedview id="base" pagecolor="#ffffff" bordercolor="#666666" borderopacity="1.0" inkscape:pageopacity="0.0" inkscape:pageshadow="2" inkscape:zoom="1.4" inkscape:cx="184.36949" inkscape:cy="189.73812" inkscape:document-units="px" inkscape:current-layer="layer1" showgrid="false" inkscape:window-width="1920" inkscape:window-height="1015" inkscape:window-x="0" inkscape:window-y="0" inkscape:window-maximized="1" units="px" showguides="false" inkscape:snap-global="false">
    <inkscape:grid type="xygrid" id="grid834"/>
  </sodipodi:namedview>
  <metadata id="metadata5">
    <rdf:RDF>
      <cc:Work rdf:about="">
        <dc:format>image/svg+xml</dc:format>
        <dc:type rdf:resource="http://purl.org/dc/dcmitype/StillImage"/>
        <dc:title/>
      </cc:Work>
    </rdf:RDF>
  </metadata>
  <g inkscape:label="Layer 1" inkscape:groupmode="layer" id="layer1" transform="translate(0,-191.16665)">
    <circle style="opacity:1;fill:url(#radialGradient1115);fill-opacity:1;stroke:none;stroke-width:1.0583334;stroke-linecap:round;stroke-miterlimit:4;stroke-dasharray:none;stroke-dashoffset:0;stroke-opacity:1;filter:url(#filter1435)" id="path1107" cx="52.916668" cy="244.08331" r="52.916668"/>
    <g id="g1172" transform="matrix(1,0,0,-1,0,488.16663)">
      <path sodipodi:nodetypes="csc" inkscape:connector-curvature="0" id="path836" d="m 0,244.08331 c 4.4182775e-6,-29.22507 23.691602,-52.91666 52.916668,-52.91666 29.225067,0 52.916672,23.69159 52.916672,52.91666" style="opacity:1;fill:none;fill-opacity:1;stroke:#ffff00;stroke-width:1.32291675;stroke-linecap:round;stroke-miterlimit:4;stroke-dasharray:none;stroke-dashoffset:0;stroke-opacity:1"/>
    </g>
    <g aria-label="EL SHOW DE" style="font-style:normal;font-weight:normal;font-size:10.58333397px;line-height:1.25;font-family:sans-serif;letter-spacing:0px;word-spacing:0px;fill:#000000;fill-opacity:1;stroke:#ff0000;stroke-width:0.7127473;stroke-miterlimit:4;stroke-dasharray:none" id="text844" transform="matrix(0.74243238,0,0,0.74243238,13.568397,61.806449)">
      <path d="m -0.53182314,243.95684 -1.32038856,-0.18966 0.2993871,-2.08425 -13.6512904,-1.96091 -0.299387,2.08425 -1.320389,-0.18966 2.103548,-14.64431 3.84113,0.55175 -0.216311,1.5059 -2.346145,-0.33701 -0.984372,6.85293 5.2269925,0.75081 0.6128816,-4.26671 -2.0733371,-0.29782 0.214743,-1.49498 5.6307484,0.80881 -0.2147437,1.49499 -2.0733374,-0.29782 -0.6128816,4.26671 6.5910307,0.94675 1.01415442,-7.06026 -2.34614502,-0.337 0.2147437,-1.49499 3.8411304,0.55175 z" style="font-style:normal;font-variant:normal;font-weight:bold;font-stretch:normal;font-size:22.57777786px;font-family:'DejaVu Serif';-inkscape-font-specification:'DejaVu Serif Bold';text-align:center;text-anchor:middle;stroke-width:0.7127473;fill:#000000;stroke:#ff0000;stroke-miterlimit:4;stroke-dasharray:none" id="path852" inkscape:connector-curvature="0"/>
      <path d="m 2.369241,226.93259 -1.1970842,-0.58855 0.9290294,-1.88961 -12.3764652,-6.0849 -0.929029,1.88961 -1.197085,-0.58855 3.735574,-7.59802 1.1970841,0.58855 -0.9338934,1.8995 12.2181731,6.00708 2.8600485,-5.81724 -2.3348088,-1.14791 0.6566438,-1.33559 3.6901851,1.81429 z" style="font-style:normal;font-variant:normal;font-weight:bold;font-stretch:normal;font-size:22.57777786px;font-family:'DejaVu Serif';-inkscape-font-specification:'DejaVu Serif Bold';text-align:center;text-anchor:middle;stroke-width:0.7127473;fill:#000000;stroke:#ff0000;stroke-miterlimit:4;stroke-dasharray:none" id="path854" inkscape:connector-curvature="0"/>
      <path d="m 14.84153,205.66298 -2.400637,-3.07689 1.103857,-0.86125 q 1.391347,1.26356 2.892921,1.25258 1.501574,-0.011 3.161704,-1.30624 1.347227,-1.05112 1.651155,-2.11324 0.303928,-1.06211 -0.469158,-2.05297 -0.610332,-0.78226 -1.427453,-0.84387 -0.817121,-0.0616 -2.60371,0.73105 l -2.31994,1.041 q -2.283263,0.9984 -3.728196,0.74146 -1.451715,-0.26562 -2.6995038,-1.86491 -1.5054842,-1.92958 -1.0619117,-3.99554 0.4454829,-2.08144 2.7574974,-3.88531 1.1386241,-0.88837 2.5133571,-1.65334 1.383426,-0.77174 3.002961,-1.42009 l 2.237882,2.86829 -1.103856,0.86125 q -1.296407,-1.14188 -2.629686,-1.09441 -1.34006,0.0388 -2.913272,1.26622 -1.2863845,1.00366 -1.5943241,1.97102 -0.3060293,0.95189 0.3856797,1.83845 0.6306754,0.80834 1.4149404,0.8816 0.777483,0.0646 2.894551,-0.86009 l 2.31994,-1.041 q 2.160527,-0.95857 3.714823,-0.63315 1.562988,0.31863 2.87181,1.99615 1.53261,1.96434 0.976905,4.04788 -0.562488,2.07485 -3.196098,4.12963 -1.269001,0.99009 -2.690154,1.74933 -1.421154,0.75923 -3.062084,1.32639 z" style="font-style:normal;font-variant:normal;font-weight:bold;font-stretch:normal;font-size:22.57777786px;font-family:'DejaVu Serif';-inkscape-font-specification:'DejaVu Serif Bold';text-align:center;text-anchor:middle;stroke-width:0.7127473;fill:#000000;stroke:#ff0000;stroke-miterlimit:4;stroke-dasharray:none" id="path856" inkscape:connector-curvature="0"/>
      <path d="m 27.793969,196.51025 -0.401793,-1.27199 2.007854,-0.63424 -4.154074,-13.15091 -2.007853,0.63423 -0.401793,-1.27199 8.073463,-2.55022 0.401793,1.27199 -2.018366,0.63755 1.666943,5.27719 6.244319,-1.97244 -1.666942,-5.27718 -2.007854,0.63423 -0.401793,-1.27199 8.073463,-2.55022 0.401793,1.27199 -2.018365,0.63755 4.154073,13.15092 2.018366,-0.63756 0.401793,1.272 -8.073464,2.55022 -0.401792,-1.27199 2.007853,-0.63424 -2.032209,-6.43354 -6.244319,1.97244 2.032209,6.43354 2.018366,-0.63756 0.401793,1.27199 z" style="font-style:normal;font-variant:normal;font-weight:bold;font-stretch:normal;font-size:22.57777786px;font-family:'DejaVu Serif';-inkscape-font-specification:'DejaVu Serif Bold';text-align:center;text-anchor:middle;stroke-width:0.7127473;fill:#000000;stroke:#ff0000;stroke-miterlimit:4;stroke-dasharray:none" id="path858" inkscape:connector-curvature="0"/>
      <path d="m 57.282634,190.32663 q 2.098776,0.16991 3.263916,-1.51649 1.16514,-1.68639 1.459591,-5.32354 0.295341,-3.64813 -0.583353,-5.49999 -0.878694,-1.85185 -2.97747,-2.02176 -2.087788,-0.16903 -3.265695,1.53846 -1.166029,1.69738 -1.458702,5.31255 -0.291783,3.60418 0.585132,5.47801 0.888794,1.86374 2.976581,2.03276 z m -0.107639,1.32959 q -4.14261,-0.33538 -6.310865,-2.78935 -2.168254,-2.45397 -1.846225,-6.43175 0.322029,-3.97779 2.856791,-6.05102 2.546639,-2.08333 6.678261,-1.74885 4.14261,0.33538 6.310864,2.78935 2.168255,2.45397 1.845336,6.44274 -0.322028,3.97779 -2.867779,6.05013 -2.534762,2.07323 -6.666383,1.73875 z" style="font-style:normal;font-variant:normal;font-weight:bold;font-stretch:normal;font-size:22.57777786px;font-family:'DejaVu Serif';-inkscape-font-specification:'DejaVu Serif Bold';text-align:center;text-anchor:middle;stroke-width:0.7127473;fill:#000000;stroke:#ff0000;stroke-miterlimit:4;stroke-dasharray:none" id="path860" inkscape:connector-curvature="0"/>
      <path d="m 84.329927,200.98966 -2.486333,-1.38132 2.562435,-12.28499 -9.077011,8.66574 -2.486332,-1.38132 3.240254,-15.50266 -1.397358,-0.77632 0.647826,-1.16607 6.822958,3.79058 -0.647826,1.16607 -1.541911,-0.85663 -2.163024,10.36295 8.660476,-8.27918 2.736893,1.52051 -2.487478,11.92307 7.804923,-7.44291 -1.715377,-0.953 0.647826,-1.16607 4.452269,2.47351 -0.647826,1.16607 -1.474452,-0.81915 z" style="font-style:normal;font-variant:normal;font-weight:bold;font-stretch:normal;font-size:22.57777786px;font-family:'DejaVu Serif';-inkscape-font-specification:'DejaVu Serif Bold';text-align:center;text-anchor:middle;stroke-width:0.7127473;fill:#000000;stroke:#ff0000;stroke-miterlimit:4;stroke-dasharray:none" id="path862" inkscape:connector-curvature="0"/>
      <path d="m 99.633435,216.383 0.723845,1.35064 q 1.21856,2.27374 3.2385,2.54203 2.02514,0.27801 5.20255,-1.42484 3.15798,-1.69245 4.04338,-3.51778 0.89511,-1.83055 -0.32865,-4.11401 l -0.72385,-1.35064 z m -4.175266,-4.9668 1.175739,-0.63011 0.994635,1.85592 12.155777,-6.5146 -0.99464,-1.85592 1.17574,-0.6301 3.98896,7.4431 q 2.09342,3.90617 1.33698,6.9757 -0.75643,3.06954 -4.26421,4.94945 -3.52722,1.89032 -6.51698,0.81597 -2.97483,-1.06985 -5.063046,-4.9663 z" style="font-style:normal;font-variant:normal;font-weight:bold;font-stretch:normal;font-size:22.57777786px;font-family:'DejaVu Serif';-inkscape-font-specification:'DejaVu Serif Bold';text-align:center;text-anchor:middle;stroke-width:0.7127473;fill:#000000;stroke:#ff0000;stroke-miterlimit:4;stroke-dasharray:none" id="path864" inkscape:connector-curvature="0"/>
      <path d="m 104.22086,229.02883 1.32039,-0.18967 0.29939,2.08425 13.65129,-1.9609 -0.29939,-2.08425 1.32039,-0.18966 2.10354,14.64431 -3.84113,0.55175 -0.21631,-1.5059 2.34615,-0.33701 -0.98437,-6.85292 -5.227,0.75081 0.61288,4.26671 2.07334,-0.29782 0.21475,1.49499 -5.63075,0.80881 -0.21475,-1.49498 2.07334,-0.29782 -0.61288,-4.26671 -6.59103,0.94675 1.01415,7.06026 2.34615,-0.337 0.21474,1.49498 -3.84113,0.55175 z" style="font-style:normal;font-variant:normal;font-weight:bold;font-stretch:normal;font-size:22.57777786px;font-family:'DejaVu Serif';-inkscape-font-specification:'DejaVu Serif Bold';text-align:center;text-anchor:middle;stroke-width:0.7127473;fill:#000000;stroke:#ff0000;stroke-miterlimit:4;stroke-dasharray:none" id="path866" inkscape:connector-curvature="0"/>
    </g>
    <g id="g1429" transform="translate(104.23512,-12.294398)">
      <path style="fill:#999999;fill-opacity:1;stroke:#000000;stroke-width:1.0583334;stroke-linecap:butt;stroke-linejoin:miter;stroke-miterlimit:4;stroke-dasharray:none;stroke-opacity:1" d="m -48.278209,256.65268 c 0.666932,-5.01407 2.652883,-3.83589 5.016525,-0.88459 4.700857,8.54068 0.08349,15.48802 1.588778,23.19987 5.190803,4.77309 3.4302,15.16586 9.572371,16.52751 l -9.51513,1.2703 c 2.224289,-3.5397 -4.394938,-9.97113 -4.359936,-16.82194 z" id="path1201" inkscape:connector-curvature="0" sodipodi:nodetypes="ccccccc" inkscape:transform-center-x="-8.7561877" inkscape:transform-center-y="18.30194"/>
      <path style="fill:#999999;stroke:#000000;stroke-width:1.0583334;stroke-linecap:butt;stroke-linejoin:miter;stroke-miterlimit:4;stroke-dasharray:none;stroke-opacity:1" d="m -76.388651,293.92989 0.970886,-51.65791 c 0.583213,-24.93843 29.74253,-26.2884 29.323181,0.65522 l -0.970882,53.88569 z" id="path1203" inkscape:connector-curvature="0" sodipodi:nodetypes="ccccc"/>
      <path sodipodi:nodetypes="cccsscccc" inkscape:connector-curvature="0" id="path1394" d="m -74.687758,292.46976 1.705049,-12.1062 -1.033453,-3.57433 c 0.375947,-2.64109 -0.224776,-8.77317 0.05356,-11.4533 0.356941,-3.43699 1.556603,-3.43655 1.696142,-6.9605 0.203625,-5.14239 0.141745,-10.39097 -0.284953,-15.78549 1.233812,-23.74543 24.920074,-25.81527 24.567672,0.64345 -0.271143,17.63935 -3.341764,32.07929 -0.813429,52.91804 z" style="fill:#aeaeae;fill-opacity:1;stroke:none;stroke-width:0.9599843;stroke-linecap:butt;stroke-linejoin:miter;stroke-miterlimit:4;stroke-dasharray:none;stroke-opacity:1"/>
      <g id="g1241" transform="matrix(1.550418,0,0,1.550418,-148.91749,-135.5088)">
        <g id="g1221" transform="matrix(0.50000001,0,0,0.50000001,33.403646,126.29389)">
          <ellipse ry="13.237564" rx="11.205943" cy="239.07513" cx="57.783112" id="ellipse1205" style="opacity:1;fill:#ffffff;fill-opacity:1;stroke:#000000;stroke-width:1.30612063;stroke-linecap:round;stroke-miterlimit:4;stroke-dasharray:none;stroke-dashoffset:0;stroke-opacity:1"/>
          <g id="g1219">
            <ellipse ry="6.9204788" rx="6.6983595" cy="238.84839" cx="57.334267" id="ellipse1207" style="opacity:1;fill:#000000;fill-opacity:1;stroke:#000000;stroke-width:0.73014206;stroke-linecap:round;stroke-miterlimit:4;stroke-dasharray:none;stroke-dashoffset:0;stroke-opacity:1"/>
            <g id="g1215">
              <ellipse ry="1.2207789" rx="1.1815968" cy="234.17094" cx="53.92643" id="ellipse1209" style="opacity:1;fill:#ffffff;fill-opacity:1;stroke:#000000;stroke-width:0.12879772;stroke-linecap:round;stroke-miterlimit:4;stroke-dasharray:none;stroke-dashoffset:0;stroke-opacity:1"/>
              <ellipse style="opacity:1;fill:#ffffff;fill-opacity:1;stroke:#000000;stroke-width:0.08728463;stroke-linecap:round;stroke-miterlimit:4;stroke-dasharray:none;stroke-dashoffset:0;stroke-opacity:1" id="ellipse1211" cx="52.107418" cy="236.16631" rx="0.80075359" ry="0.82730687"/>
              <ellipse ry="1.1609658" rx="0.49657771" cy="237.30023" cx="53.54845" id="ellipse1213" style="opacity:1;fill:#ffffff;fill-opacity:1;stroke:#000000;stroke-width:0.08142511;stroke-linecap:round;stroke-miterlimit:4;stroke-dasharray:none;stroke-dashoffset:0;stroke-opacity:1"/>
            </g>
            <ellipse style="opacity:1;fill:url(#linearGradient1267);fill-opacity:1;stroke:none;stroke-width:0.73014206;stroke-linecap:round;stroke-miterlimit:4;stroke-dasharray:none;stroke-dashoffset:0;stroke-opacity:1" id="ellipse1217" cx="57.334267" cy="238.84839" rx="6.6983595" ry="6.9204788"/>
          </g>
        </g>
        <g transform="matrix(0.50000001,0,0,0.50000001,22.962054,126.48288)" id="g1239">
          <ellipse style="opacity:1;fill:#ffffff;fill-opacity:1;stroke:#000000;stroke-width:1.30612063;stroke-linecap:round;stroke-miterlimit:4;stroke-dasharray:none;stroke-dashoffset:0;stroke-opacity:1" id="ellipse1223" cx="57.783112" cy="239.07513" rx="11.205943" ry="13.237564"/>
          <g id="g1237">
            <ellipse style="opacity:1;fill:#000000;fill-opacity:1;stroke:#000000;stroke-width:0.73014206;stroke-linecap:round;stroke-miterlimit:4;stroke-dasharray:none;stroke-dashoffset:0;stroke-opacity:1" id="ellipse1225" cx="57.334267" cy="238.84839" rx="6.6983595" ry="6.9204788"/>
            <g id="g1233">
              <ellipse style="opacity:1;fill:#ffffff;fill-opacity:1;stroke:#000000;stroke-width:0.12879772;stroke-linecap:round;stroke-miterlimit:4;stroke-dasharray:none;stroke-dashoffset:0;stroke-opacity:1" id="ellipse1227" cx="53.92643" cy="234.17094" rx="1.1815968" ry="1.2207789"/>
              <ellipse ry="0.82730687" rx="0.80075359" cy="236.16631" cx="52.107418" id="ellipse1229" style="opacity:1;fill:#ffffff;fill-opacity:1;stroke:#000000;stroke-width:0.08728463;stroke-linecap:round;stroke-miterlimit:4;stroke-dasharray:none;stroke-dashoffset:0;stroke-opacity:1"/>
              <ellipse style="opacity:1;fill:#ffffff;fill-opacity:1;stroke:#000000;stroke-width:0.08142511;stroke-linecap:round;stroke-miterlimit:4;stroke-dasharray:none;stroke-dashoffset:0;stroke-opacity:1" id="ellipse1231" cx="53.54845" cy="237.30023" rx="0.49657771" ry="1.1609658"/>
            </g>
            <ellipse ry="6.9204788" rx="6.6983595" cy="238.84839" cx="57.334267" id="ellipse1235" style="opacity:1;fill:url(#linearGradient1269);fill-opacity:1;stroke:none;stroke-width:0.73014206;stroke-linecap:round;stroke-miterlimit:4;stroke-dasharray:none;stroke-dashoffset:0;stroke-opacity:1"/>
          </g>
        </g>
      </g>
      <path style="fill:none;stroke:#ff0000;stroke-width:1.32291675;stroke-linecap:round;stroke-linejoin:miter;stroke-miterlimit:4;stroke-dasharray:none;stroke-opacity:1" d="m -67.075893,216.01981 c 1.469399,10.21713 -0.04572,27.89556 16.819939,-0.37798 l 6.039046,-11.33542" id="path1243" inkscape:connector-curvature="0" sodipodi:nodetypes="ccc"/>
      <g id="g1259" transform="matrix(0.15776925,0.02924877,-0.02924877,0.15776925,-44.865843,214.94666)" inkscape:transform-center-x="-4.6544874" inkscape:transform-center-y="0.25743668">
        <path sodipodi:nodetypes="ccc" inkscape:connector-curvature="0" id="path1245" d="m -64.633929,286.79463 c 19.430902,0.93031 40.540159,-6.53115 61.4211313,-12.85119 0,0 -98.0848223,74.46131 -61.4211313,12.85119 z" style="fill:#ff0000;stroke:#000000;stroke-width:0.79374999;stroke-linecap:butt;stroke-linejoin:miter;stroke-miterlimit:4;stroke-dasharray:none;stroke-opacity:1"/>
        <g id="g1257">
          <path inkscape:connector-curvature="0" id="path1247" d="m -70.303572,300.21278 c 24.718475,-1.3245 45.780855,-15.52927 67.0907743,-26.26934 0.3052866,-0.35317 -80.4127073,60.87625 -67.0907743,26.26934 z" style="fill:#ffffff;stroke:#000000;stroke-width:0.79374999;stroke-linecap:butt;stroke-linejoin:miter;stroke-miterlimit:4;stroke-dasharray:none;stroke-opacity:1" sodipodi:nodetypes="ccc"/>
          <g id="g1255" style="stroke-width:1.0583334;stroke-miterlimit:4;stroke-dasharray:none">
            <path inkscape:connector-curvature="0" id="path1249" d="m -48.569942,296.24403 -1.133928,8.50447" style="fill:none;stroke:#000000;stroke-width:1.0583334;stroke-linecap:butt;stroke-linejoin:miter;stroke-miterlimit:4;stroke-dasharray:none;stroke-opacity:1"/>
            <path inkscape:connector-curvature="0" id="path1251" d="m -62.555061,300.0238 -1.511906,10.01636" style="fill:none;stroke:#000000;stroke-width:1.0583334;stroke-linecap:butt;stroke-linejoin:miter;stroke-miterlimit:4;stroke-dasharray:none;stroke-opacity:1"/>
            <path inkscape:connector-curvature="0" id="path1253" d="m -32.883928,289.62945 -0.377979,5.85863" style="fill:none;stroke:#000000;stroke-width:1.0583334;stroke-linecap:butt;stroke-linejoin:miter;stroke-miterlimit:4;stroke-dasharray:none;stroke-opacity:1"/>
          </g>
        </g>
      </g>
      <path style="fill:#999999;fill-opacity:1;stroke:#000000;stroke-width:1.0583334;stroke-linecap:round;stroke-linejoin:miter;stroke-miterlimit:4;stroke-dasharray:none;stroke-opacity:1" d="m -69.741625,263.22282 c 5.924474,3.10257 11.848949,-0.25296 17.773423,9.48807 5.53654,-8.92504 12.825475,-6.64832 17.105252,-13.76438 l 0.534538,-5.21175 c 0.977025,-1.69629 0.146247,-3.39258 0,-5.08887 0.752978,-1.58907 1.65489,-2.1356 2.939965,0 1.315152,1.93599 -0.04166,3.53807 0.53454,4.95523 l 5.211755,-0.53454 c 0.975945,0.76079 1.034052,1.52158 0.228237,2.28238 0.826055,0.54978 1.357371,1.20673 0.246099,2.46099 1.86033,1.56602 0.787504,2.08447 0.280501,2.80501 0.958635,0.60202 1.838137,1.20404 0.180605,1.80606 l -6.548101,1.87088 c -6.608941,6.17736 -12.172541,14.70674 -20.045215,18.0407 -7.136884,-2.54679 -16.112605,-2.33532 -20.713391,-8.68626" id="path1263" inkscape:connector-curvature="0" sodipodi:nodetypes="ccccccccccccccc"/>
      <path sodipodi:nodetypes="ccccccccccccccc" inkscape:connector-curvature="0" id="path1303" d="m -70.119601,264.07327 c 5.924474,3.10257 11.943443,0.21951 17.867917,9.96054 5.53654,-8.92504 13.770415,-7.30978 18.050192,-14.42584 l 0.942158,-5.73958 c 0.977025,-1.69629 -0.166879,-2.86475 -0.313126,-4.56104 0.752978,-1.58907 0.04849,-2.32459 1.333567,-0.18899 1.315152,1.93599 0.06905,4.49366 0.645246,5.91082 l 4.817566,-1.49013 c 0.975945,0.76079 1.034052,1.52158 0.228237,2.28238 0.826055,0.54978 1.357371,1.20673 0.246099,2.46099 1.86033,1.56602 0.787504,2.08447 0.280501,2.80501 0.958635,0.60202 0.609715,0.63708 -1.047817,1.2391 -3.911479,-1.63973 -2.397591,-0.38086 -4.18575,-0.84096 -6.608941,6.17736 -12.439811,14.03857 -20.312485,17.37253 -7.136884,-2.54679 -14.909892,-3.13713 -19.510678,-9.48807" style="fill:#aeaeae;fill-opacity:1;stroke:none;stroke-width:1.0583334;stroke-linecap:round;stroke-linejoin:miter;stroke-miterlimit:4;stroke-dasharray:none;stroke-opacity:1"/>
    </g>
    <path style="opacity:1;fill:url(#radialGradient1192);fill-opacity:1;stroke:none;stroke-width:1.0583334;stroke-linecap:round;stroke-miterlimit:4;stroke-dasharray:none;stroke-dashoffset:0;stroke-opacity:1" d="m 0.33728833,245.18863 c -1.1e-6,29.22507 23.69159867,52.91667 52.91666767,52.91667 28.523479,0 52.326604,-22.55169 52.875954,-50.82172 l 0.0407,-2.09495 -4.92981,1.45345 c -5.863507,20.75081 -24.939629,35.95671 -47.56724,35.95667 -23.084748,4e-5 -42.47306,-15.82646 -47.9063634,-37.22103 z" id="circle1190" inkscape:connector-curvature="0" sodipodi:nodetypes="cssccccc"/>
    <g aria-label="S H I A L E W E B" style="font-style:normal;font-weight:normal;font-size:10.58333397px;line-height:1.25;font-family:sans-serif;letter-spacing:0px;word-spacing:0px;fill:#ff0000;fill-opacity:1;stroke:#ff0000;stroke-width:1.05833335;stroke-miterlimit:4;stroke-dasharray:none" id="text871">
      <path d="m 13.696968,255.78101 -2.566496,0.48951 q 0.256164,-1.08418 0.302334,-2.07781 0.04617,-0.99363 -0.114934,-1.8383 -0.213772,-1.12081 -0.62464,-1.59798 -0.410868,-0.47718 -1.0606136,-0.35325 -0.4873094,0.0929 -0.6952922,0.50297 -0.1983119,0.4166 -0.2119942,1.40403 l -0.013972,1.3831 q -0.020372,2.09979 -0.6861456,3.11058 -0.6657733,1.0108 -2.1926759,1.30203 -2.0060901,0.38262 -3.2165442,-0.62385 -1.2007832,-0.9999 -1.66705383,-3.44457 -0.21996821,-1.1533 -0.22219628,-2.35654 -0.002228,-1.20325 0.20671122,-2.44677 l 2.63959229,-0.50345 q -0.3957412,1.27915 -0.5064658,2.41977 -0.1010536,1.14719 0.091031,2.15429 0.1951831,1.02335 0.6400875,1.50245 0.4449043,0.4791 1.0784065,0.35828 0.5685275,-0.10844 0.8058995,-0.54091 0.238921,-0.42434 0.2719019,-1.57538 l 0.037208,-1.26127 q 0.042855,-1.89365 0.7345432,-2.90097 0.693237,-0.9992 2.1389213,-1.27493 1.8111668,-0.34545 3.0088518,0.63821 1.197685,0.98365 1.615934,3.17654 0.190536,0.99899 0.237601,2.08426 0.05519,1.08372 -0.03,2.26996 z" style="font-style:normal;font-variant:normal;font-weight:bold;font-stretch:normal;font-size:16.93333435px;font-family:'DejaVu Sans';-inkscape-font-specification:'DejaVu Sans Bold';text-align:center;text-anchor:middle;fill:#ff0000;stroke:#ff0000;stroke-width:1.05833335;stroke-miterlimit:4;stroke-dasharray:none" id="path1151"/>
      <path d="m 15.674599,260.56386 1.666019,2.71248 -4.008842,2.46225 2.457919,4.0018 4.008843,-2.46225 1.666019,2.71249 -10.518808,6.46069 -1.6660189,-2.71249 4.4597489,-2.73919 -2.457919,-4.0018 -4.4597492,2.7392 -1.6660192,-2.71249 z" style="font-style:normal;font-variant:normal;font-weight:bold;font-stretch:normal;font-size:16.93333435px;font-family:'DejaVu Sans';-inkscape-font-specification:'DejaVu Sans Bold';text-align:center;text-anchor:middle;fill:#ff0000;stroke:#ff0000;stroke-width:1.05833335;stroke-miterlimit:4;stroke-dasharray:none" id="path1153"/>
      <path d="m 25.342994,273.64773 2.40107,2.08999 -8.104818,9.31116 -2.401071,-2.08999 z" style="font-style:normal;font-variant:normal;font-weight:bold;font-stretch:normal;font-size:16.93333435px;font-family:'DejaVu Sans';-inkscape-font-specification:'DejaVu Sans Bold';text-align:center;text-anchor:middle;fill:#ff0000;stroke:#ff0000;stroke-width:1.05833335;stroke-miterlimit:4;stroke-dasharray:none" id="path1155"/>
      <path d="m 34.733909,291.35738 -4.541494,-2.03717 -1.637133,1.73049 -2.919531,-1.30961 9.224168,-9.39185 3.4627,1.55326 -0.880493,13.13456 -2.919532,-1.30961 z m -2.879898,-3.802 3.0855,1.38406 0.471126,-5.17148 z" style="font-style:normal;font-variant:normal;font-weight:bold;font-stretch:normal;font-size:16.93333435px;font-family:'DejaVu Sans';-inkscape-font-specification:'DejaVu Sans Bold';text-align:center;text-anchor:middle;fill:#ff0000;stroke:#ff0000;stroke-width:1.05833335;stroke-miterlimit:4;stroke-dasharray:none" id="path1157"/>
      <path d="m 45.92149,284.19324 3.172177,0.26551 -0.82892,9.90378 5.569848,0.46618 -0.200678,2.39767 -8.742025,-0.73168 z" style="font-style:normal;font-variant:normal;font-weight:bold;font-stretch:normal;font-size:16.93333435px;font-family:'DejaVu Sans';-inkscape-font-specification:'DejaVu Sans Bold';text-align:center;text-anchor:middle;fill:#ff0000;stroke:#ff0000;stroke-width:1.05833335;stroke-miterlimit:4;stroke-dasharray:none" id="path1159"/>
      <path d="m 58.641434,284.51596 8.349826,-2.01999 0.565753,2.3386 -5.25581,1.27148 0.540479,2.23412 4.94239,-1.19566 0.565754,2.33859 -4.94239,1.19567 0.664906,2.74845 5.43261,-1.31426 0.565754,2.33859 -8.526628,2.06277 z" style="font-style:normal;font-variant:normal;font-weight:bold;font-stretch:normal;font-size:16.93333435px;font-family:'DejaVu Sans';-inkscape-font-specification:'DejaVu Sans Bold';text-align:center;text-anchor:middle;fill:#ff0000;stroke:#ff0000;stroke-width:1.05833335;stroke-miterlimit:4;stroke-dasharray:none" id="path1161"/>
      <path d="m 70.132682,281.99806 2.454737,-1.81183 7.043788,5.95105 -3.624454,-8.47484 2.468042,-1.82166 7.030483,5.96087 -3.611149,-8.48466 2.434779,-1.7971 4.989147,11.66039 -2.953666,2.18009 -7.375775,-6.21983 3.79013,8.86638 -2.953666,2.18009 z" style="font-style:normal;font-variant:normal;font-weight:bold;font-stretch:normal;font-size:16.93333435px;font-family:'DejaVu Sans';-inkscape-font-specification:'DejaVu Sans Bold';text-align:center;text-anchor:middle;fill:#ff0000;stroke:#ff0000;stroke-width:1.05833335;stroke-miterlimit:4;stroke-dasharray:none" id="path1163"/>
      <path d="m 85.845588,268.51532 4.411439,-7.37151 2.06459,1.23554 -2.776786,4.64001 1.972358,1.18035 2.611198,-4.36331 2.064591,1.23554 -2.611199,4.36331 2.426426,1.45208 2.870196,-4.79609 2.064589,1.23554 -4.504847,7.5276 z" style="font-style:normal;font-variant:normal;font-weight:bold;font-stretch:normal;font-size:16.93333435px;font-family:'DejaVu Sans';-inkscape-font-specification:'DejaVu Sans Bold';text-align:center;text-anchor:middle;fill:#ff0000;stroke:#ff0000;stroke-width:1.05833335;stroke-miterlimit:4;stroke-dasharray:none" id="path1165"/>
      <path d="m 97.676035,252.87535 q 0.145841,-0.73814 -0.103291,-1.18349 -0.249132,-0.44534 -0.881823,-0.57034 -0.624579,-0.12341 -1.024361,0.19372 -0.407892,0.31553 -0.553733,1.05367 l -0.341365,1.72773 2.563209,0.50644 z m 5.317595,0.94108 q 0.1859,-0.94093 -0.1186,-1.48992 -0.3029,-0.5571 -1.10594,-0.71577 -0.7868,-0.15545 -1.26911,0.23808 -0.49041,0.39194 -0.677918,1.34097 l -0.362199,1.83318 3.171567,0.62664 z m -3.782087,-3.76451 q 0.490739,-0.94812 1.386527,-1.34424 0.89579,-0.39612 2.0395,-0.17015 1.75207,0.34617 2.37789,1.70032 0.62582,1.35415 0.14823,3.77135 l -1.02409,5.1832 -12.11035,-2.39276 0.926331,-4.6884 q 0.498424,-2.52265 1.483666,-3.49949 0.986844,-0.98495 2.665908,-0.6532 0.884145,0.17469 1.426989,0.71178 0.534733,0.53548 0.679399,1.38159 z" style="font-style:normal;font-variant:normal;font-weight:bold;font-stretch:normal;font-size:16.93333435px;font-family:'DejaVu Sans';-inkscape-font-specification:'DejaVu Sans Bold';text-align:center;text-anchor:middle;fill:#ff0000;stroke:#ff0000;stroke-width:1.05833335;stroke-miterlimit:4;stroke-dasharray:none" id="path1167"/>
    </g>
    <text xml:space="preserve" style="font-style:normal;font-weight:normal;font-size:10.58333397px;line-height:1.25;font-family:sans-serif;letter-spacing:0px;word-spacing:0px;fill:#000000;fill-opacity:1;stroke:none;stroke-width:0.26458335" x="46.491074" y="290.76337" id="text1145"><tspan sodipodi:role="line" id="tspan1143" x="46.491074" y="290.76337" style="stroke-width:0.26458335"> </tspan></text>
    <text xml:space="preserve" style="font-style:normal;font-weight:normal;font-size:10.58333397px;line-height:1.25;font-family:sans-serif;letter-spacing:0px;word-spacing:0px;fill:#000000;fill-opacity:1;stroke:none;stroke-width:0.26458335" x="46.680061" y="292.27527" id="text1149"><tspan sodipodi:role="line" id="tspan1147" x="46.680061" y="292.27527" style="stroke-width:0.26458335"> </tspan></text>
  </g>
</svg>