<?xml version="1.0" encoding="UTF-8" standalone="no"?>
<!-- Created with Inkscape (http://www.inkscape.org/) -->

<svg
   width="400"
   height="400"
   viewBox="0 0 105.83333 105.83333"
   version="1.1"
   id="svg1"
   inkscape:version="1.4 (e7c3feb100, 2024-10-09)"
   sodipodi:docname="shialewebos_os.svg"
   xmlns:inkscape="http://www.inkscape.org/namespaces/inkscape"
   xmlns:sodipodi="http://sodipodi.sourceforge.net/DTD/sodipodi-0.dtd"
   xmlns="http://www.w3.org/2000/svg"
   xmlns:svg="http://www.w3.org/2000/svg">
  <sodipodi:namedview
     id="namedview1"
     pagecolor="#ffffff"
     bordercolor="#000000"
     borderopacity="0.25"
     inkscape:showpageshadow="2"
     inkscape:pageopacity="0.0"
     inkscape:pagecheckerboard="0"
     inkscape:deskcolor="#d1d1d1"
     inkscape:document-units="px"
     inkscape:zoom="1.0809568"
     inkscape:cx="370.50511"
     inkscape:cy="173.92"
     inkscape:window-width="1920"
     inkscape:window-height="986"
     inkscape:window-x="0"
     inkscape:window-y="60"
     inkscape:window-maximized="1"
     inkscape:current-layer="g50"
     showguides="true">
    <sodipodi:guide
       position="52.889056,51.161327"
       orientation="1,0"
       id="guide2"
       inkscape:locked="false" />
    <sodipodi:guide
       position="-124.26923,52.871793"
       orientation="0,-1"
       id="guide3"
       inkscape:locked="false" />
  </sodipodi:namedview>
  <defs
     id="defs1" />
  <g
     inkscape:label="Capa 1"
     inkscape:groupmode="layer"
     id="layer1">
    <g
       id="g49"
       transform="translate(-14.196528,-25.945379)" />
    <g
       id="g50"
       transform="matrix(0.98865166,0,0,0.98865166,377.06159,78.216105)">
      <g
         id="g51">
        <path
           id="circle44"
           style="fill:#008000;stroke:#000000;stroke-width:0.147563"
           d="m -313.32084,-52.754578 a 23.408075,23.408075 0 0 0 -23.40787,23.40839 23.408075,23.408075 0 0 0 0.0238,0.33538 36.951923,36.951923 0 0 0 -6.24458,6.160864 23.408075,23.408075 0 0 0 -0.26924,-0.0067 23.408075,23.408075 0 0 0 -23.40787,23.40839007 23.408075,23.408075 0 0 0 23.40787,23.40787293 23.408075,23.408075 0 0 0 0.93431,-0.02325 36.951923,36.951923 0 0 0 5.641,5.318538 23.408075,23.408075 0 0 0 -0.0853,1.194759 23.408075,23.408075 0 0 0 23.40787,23.407873 23.408075,23.408075 0 0 0 23.40787,-23.407873 23.408075,23.408075 0 0 0 -0.11575,-2.319755 36.951923,36.951923 0 0 0 4.24677,-4.338753 23.408075,23.408075 0 0 0 2.35903,0.168466 23.408075,23.408075 0 0 0 23.40787,-23.40787293 23.408075,23.408075 0 0 0 -23.40787,-23.40839007 23.408075,23.408075 0 0 0 -1.62988,0.116789 36.951923,36.951923 0 0 0 -4.91184,-5.137671 23.408075,23.408075 0 0 0 0.0517,-1.468644 23.408075,23.408075 0 0 0 -23.40787,-23.40839 z"
           transform="translate(-14.196528,-25.945379)" />
        <g
           id="g48"
           style="stroke:#000000"
           transform="translate(-14.196528,-25.945379)">
          <g
             id="g33"
             style="stroke:#000000">
            <circle
               style="fill:#ffff00;stroke:#000000;stroke-width:0.264583"
               id="path33"
               cx="-313.26923"
               cy="-45.346153"
               r="3.2884614" />
            <circle
               style="fill:#ffff00;stroke:#000000;stroke-width:0.264583"
               id="circle33"
               cx="-312.77969"
               cy="46.931278"
               r="3.2884614" />
          </g>
          <g
             id="g35"
             transform="rotate(90,-313.02446,0.79256248)"
             style="stroke:#000000">
            <circle
               style="fill:#ffff00;stroke:#000000;stroke-width:0.264583"
               id="circle34"
               cx="-313.26923"
               cy="-45.346153"
               r="3.2884614" />
            <circle
               style="fill:#ffff00;stroke:#000000;stroke-width:0.264583"
               id="circle35"
               cx="-312.77969"
               cy="46.931278"
               r="3.2884614" />
          </g>
        </g>
        <path
           id="ellipse35"
           style="fill:#ff00ff;stroke:#000000;stroke-width:0.264583"
           d="m -327.79923,-59.970791 a 4.0673075,17.39423 0 0 0 -4.06693,17.394286 4.0673075,17.39423 0 0 0 0.51728,8.447546 17.39423,4.0673075 45 0 0 -5.65443,-6.391857 17.39423,4.0673075 45 0 0 -15.17531,-9.423198 17.39423,4.0673075 45 0 0 9.4232,15.175301 17.39423,4.0673075 45 0 0 6.33863,5.60741 17.39423,4.0673075 0 0 0 -8.51679,-0.521416 17.39423,4.0673075 0 0 0 -17.39429,4.067452 17.39423,4.0673075 0 0 0 17.39429,4.067452 17.39423,4.0673075 0 0 0 8.45995,-0.519348 4.0673075,17.39423 45 0 0 -6.40426,5.655985 4.0673075,17.39423 45 0 0 -9.4232,15.1758183 4.0673075,17.39423 45 0 0 15.1753,-9.4237143 4.0673075,17.39423 45 0 0 5.6131,-6.338114 4.0673075,17.39423 0 0 0 -0.52659,8.5167923 4.0673075,17.39423 0 0 0 4.06694,17.394287 4.0673075,17.39423 0 0 0 4.06745,-17.394287 4.0673075,17.39423 0 0 0 -0.51211,-8.4506463 17.39423,4.0673075 45 0 0 5.64875,6.394441 17.39423,4.0673075 45 0 0 15.17581,9.4237143 17.39423,4.0673075 45 0 0 -9.42371,-15.1758173 17.39423,4.0673075 45 0 0 -6.34897,-5.614645 17.39423,4.0673075 0 0 0 8.52765,0.52865 17.39423,4.0673075 0 0 0 17.39429,-4.067452 17.39423,4.0673075 0 0 0 -17.39429,-4.067452 17.39423,4.0673075 0 0 0 -8.45995,0.519349 4.0673075,17.39423 45 0 0 6.40374,-5.655986 4.0673075,17.39423 45 0 0 9.42372,-15.175817 4.0673075,17.39423 45 0 0 -15.17582,9.423714 4.0673075,17.39423 45 0 0 -5.61464,6.349483 4.0673075,17.39423 0 0 0 0.52865,-8.527645 4.0673075,17.39423 0 0 0 -4.06746,-17.394286 z" />
      </g>
    </g>
  </g>
</svg>
